<?xml version="1.0" encoding="UTF-8"?>
<svg width="1200pt" height="1200pt" version="1.1" viewBox="0 0 1200 1200" xmlns="http://www.w3.org/2000/svg">
 <path d="m1163 843.71h-858.32l26.438 44.906 124.55 33.516c9.375 2.5312 14.953 12.141 12.422 21.516s-12.141 14.953-21.516 12.422l-59.156-15.938-21.188 53.109c-3.5625 9-13.734 13.406-22.734 9.8438s-13.406-13.734-9.8438-22.734l19.688-49.359-38.297-10.312c-4.5-1.2188-8.2969-4.125-10.641-8.2031l-40.406-68.766h-227.02v171.74h70.734l-26.906-94.734c-2.625-9.3281 2.8125-19.031 12.188-21.656 9.3281-2.625 19.031 2.8125 21.656 12.188l29.578 104.25h70.594c4.875 0 9.3281 1.9688 12.516 5.2031l54.844 54.844c6.8906 6.8906 6.8906 18 0 24.891-6.8438 6.8438-18 6.8438-24.891 0l-49.781-49.781h-170.53v121.18h1126.1l-0.046875-230.48-90.797 36.656-22.312 82.078c-2.5312 9.375-12.188 14.906-21.609 12.375-9.375-2.5312-14.906-12.188-12.375-21.562l11.484-42.188-74.297-23.953c-9.2344-2.9531-14.297-12.844-11.344-22.078s12.844-14.297 22.078-11.344l72.797 23.438 3.8906-14.25c1.4062-5.25 5.2031-9.5156 10.219-11.625l112.27-45.422 0.046875-59.766zm-1046.3-297.79c4.4062-8.625 14.953-12.047 23.578-7.6406s12.047 14.953 7.6406 23.578c-30.047 58.547-18.703 70.828-6.5156 83.953 20.906 22.594 43.312 46.781 2.0625 139.13-3.9375 8.8594-14.297 12.797-23.156 8.8594s-12.797-14.297-8.8594-23.156c31.828-71.25 17.578-86.672 4.2656-101.06-20.859-22.406-40.219-43.359 0.98438-123.66zm940.74 0c4.4062-8.625 14.953-12.047 23.578-7.6406s12.047 14.953 7.6406 23.578c-30.047 58.547-18.703 70.828-6.5156 83.953 20.906 22.594 43.312 46.781 2.0625 139.13-3.9375 8.8594-14.297 12.797-23.156 8.8594-8.8594-3.9375-12.797-14.297-8.8594-23.156 31.828-71.25 17.578-86.672 4.2656-101.06-20.812-22.406-40.219-43.359 0.98438-123.66zm-188.16 0c4.4062-8.625 14.953-12.047 23.578-7.6406s12.047 14.953 7.6406 23.578c-30.047 58.547-18.703 70.828-6.5156 83.953 20.906 22.594 43.312 46.781 2.0625 139.13-3.9375 8.8594-14.297 12.797-23.156 8.8594s-12.797-14.297-8.8594-23.156c31.828-71.25 17.578-86.672 4.2656-101.06-20.812-22.406-40.219-43.359 0.98438-123.66zm-188.16 0c4.4062-8.625 14.953-12.047 23.578-7.6406s12.047 14.953 7.6406 23.578c-30.047 58.547-18.703 70.828-6.5156 83.953 20.906 22.594 43.312 46.781 2.0625 139.13-3.9375 8.8594-14.297 12.797-23.156 8.8594s-12.797-14.297-8.8594-23.156c31.828-71.25 17.578-86.672 4.2656-101.06-20.812-22.406-40.219-43.359 0.98438-123.66zm-188.11 0c4.4062-8.625 14.953-12.047 23.578-7.6406s12.047 14.953 7.6406 23.578c-30.047 58.547-18.703 70.828-6.5156 83.953 20.906 22.594 43.312 46.781 2.0625 139.13-3.9375 8.8594-14.297 12.797-23.156 8.8594s-12.797-14.297-8.8594-23.156c31.828-71.25 17.578-86.672 4.2656-101.06-20.859-22.406-40.266-43.359 0.98438-123.66zm-188.16 0c4.4062-8.625 14.953-12.047 23.578-7.6406s12.047 14.953 7.6406 23.578c-30.047 58.547-18.703 70.828-6.5156 83.953 20.906 22.594 43.312 46.781 2.0625 139.13-3.9375 8.8594-14.297 12.797-23.156 8.8594-8.8594-3.9375-12.797-14.297-8.8594-23.156 31.828-71.25 17.578-86.672 4.2656-101.06-20.859-22.406-40.219-43.359 0.98438-123.66zm295.13-380.21c53.719 0 97.219 43.547 97.219 97.266s-43.547 97.219-97.219 97.219c-53.719 0-97.266-43.547-97.266-97.219 0.046875-53.719 43.547-97.266 97.266-97.266zm-146.16 79.641c9.7031 0 17.578 7.875 17.578 17.578s-7.875 17.578-17.578 17.578h-71.062c-9.7031 0-17.578-7.875-17.578-17.578s7.875-17.578 17.578-17.578zm55.266-98.156-50.25-50.25c-6.8438-6.8438-18-6.8438-24.891 0-6.8438 6.8906-6.8438 18 0 24.891l50.25 50.25c6.8906 6.8438 18 6.8438 24.891 0 6.8438-6.8906 6.8438-18.047 0-24.891zm108.47-30.375c0 9.7031-7.875 17.578-17.578 17.578-9.7031 0-17.578-7.875-17.578-17.578v-71.062c0-9.7031 7.875-17.578 17.578-17.578 9.7031 0 17.578 7.875 17.578 17.578zm98.203 55.266 50.25-50.25c6.8438-6.8906 6.8438-18 0-24.891-6.8906-6.8438-18-6.8438-24.891 0l-50.25 50.25c-6.8438 6.8438-6.8438 18 0 24.891 6.8906 6.8438 18.047 6.8438 24.891 0zm30.375 108.47c-9.7031 0-17.578-7.875-17.578-17.578s7.875-17.578 17.578-17.578h71.062c9.7031 0 17.578 7.875 17.578 17.578s-7.875 17.578-17.578 17.578zm-55.266 98.203 50.25 50.25c6.8438 6.8906 18 6.8906 24.891 0 6.8438-6.8438 6.8438-18 0-24.891l-50.25-50.25c-6.8906-6.8906-18-6.8906-24.891 0-6.8438 6.8906-6.8438 18 0 24.891zm-108.47 30.375c0-9.7031 7.875-17.578 17.578-17.578 9.7031 0 17.578 7.875 17.578 17.578v71.062c0 9.7031-7.875 17.578-17.578 17.578-9.7031 0-17.578-7.875-17.578-17.578zm-98.203-55.266-50.25 50.25c-6.8438 6.8906-6.8438 18 0 24.891 6.8906 6.8906 18 6.8906 24.891 0l50.25-50.25c6.8438-6.8906 6.8438-18 0-24.891-6.8906-6.8438-18-6.8438-24.891 0zm326.95 595.45 36.469-37.641c8.625-8.8594 23.766-6.375 28.828 5.625l24.422 55.969c3.8438 8.8594-0.1875 19.219-9.0938 23.109-8.8594 3.8906-19.219-0.1875-23.109-9.0938l-14.109-32.344-25.688 26.531-30.141 38.766 50.062 45.422c7.1719 6.4688 7.7344 17.578 1.2188 24.75-6.4688 7.1719-17.578 7.7344-24.75 1.2188l-61.078-55.359c-7.5469-6.2344-9.4219-16.828-3.2344-24.797l26.391-33.891-68.438-28.688c-8.9531-3.75-13.172-14.062-9.4219-23.016s14.062-13.172 23.016-9.4219zm-285.1 95.625-67.172 72.328c-6.6094 7.0781-17.719 7.5-24.797 0.89062-7.125-6.6094-7.5-17.719-0.89062-24.797l48.609-52.359-47.391-4.2188c-9.6562-0.84375-16.781-9.3281-15.938-18.984s9.3281-16.781 18.984-15.938l101.48 9.0469-11.25-32.906c-3.0938-9.1875 1.8281-19.172 10.969-22.266 9.1875-3.0938 19.172 1.8281 22.266 10.969l16.219 47.625 45.562 4.0781c4.6406 0.09375 9.2344 2.0625 12.609 5.7188l65.766 72.281c6.5156 7.1719 6 18.281-1.1719 24.797s-18.281 6-24.797-1.1719l-61.219-67.266c-29.25-2.5781-58.547-5.2031-87.844-7.8281z" fill="#017e9e" fill-rule="evenodd"/>
</svg>
