<?xml version="1.0" encoding="UTF-8"?>
<svg width="1200pt" height="1200pt" version="1.1" viewBox="0 0 1200 1200" xmlns="http://www.w3.org/2000/svg">
 <path d="m1080 928.2c-37.199 0-56.762 18.719-72.48 33.84-14.398 13.801-24.84 23.762-47.52 23.762s-33.121-9.9609-47.52-23.762c-15.719-15.121-35.281-33.84-72.48-33.84s-56.762 18.719-72.48 33.84c-14.398 13.801-24.719 23.762-47.52 23.762s-33.121-9.9609-47.52-23.762c-15.719-15.121-35.281-33.84-72.48-33.84s-56.762 18.719-72.48 33.84c-14.398 13.801-24.719 23.762-47.52 23.762s-33.121-9.9609-47.52-23.762c-15.719-15.121-35.16-33.84-72.48-33.84s-56.762 18.719-72.48 33.84c-14.398 13.801-24.719 23.762-47.52 23.762s-33.121-9.9609-47.52-23.762c-15.719-15.121-35.16-33.84-72.48-33.84-9.9609 0-18 8.0391-18 18 0 9.9609 8.0391 18 18 18 22.801 0 33.121 9.9609 47.52 23.762 15.719 15.121 35.16 33.84 72.48 33.84s56.762-18.719 72.48-33.84c14.398-13.801 24.719-23.762 47.52-23.762s33.121 9.9609 47.52 23.762c15.719 15.121 35.16 33.84 72.48 33.84s56.762-18.719 72.48-33.84c14.398-13.801 24.719-23.762 47.52-23.762s33.121 9.9609 47.52 23.762c15.719 15.121 35.281 33.84 72.48 33.84s56.762-18.719 72.48-33.84c14.398-13.801 24.719-23.762 47.52-23.762s33.121 9.9609 47.52 23.762c15.719 15.121 35.281 33.84 72.48 33.84s56.762-18.719 72.48-33.84c14.398-13.801 24.84-23.762 47.52-23.762 9.9609 0 18-8.0391 18-18 0-9.9609-8.0391-18-18-18z" fill="#017e9e"/>
 <path d="m1080 808.2c-37.199 0-56.762 18.719-72.48 33.84-14.398 13.801-24.84 23.762-47.52 23.762s-33.121-9.9609-47.52-23.762c-15.719-15.121-35.281-33.84-72.48-33.84s-56.762 18.719-72.48 33.84c-14.398 13.801-24.719 23.762-47.52 23.762s-33.121-9.9609-47.52-23.762c-15.719-15.121-35.281-33.84-72.48-33.84s-56.762 18.719-72.48 33.84c-14.398 13.801-24.719 23.762-47.52 23.762s-33.121-9.9609-47.52-23.762c-15.719-15.121-35.16-33.84-72.48-33.84s-56.762 18.719-72.48 33.84c-14.398 13.801-24.719 23.762-47.52 23.762s-33.121-9.9609-47.52-23.762c-15.719-15.121-35.16-33.84-72.48-33.84-9.9609 0-18 8.0391-18 18 0 9.9609 8.0391 18 18 18 22.801 0 33.121 9.9609 47.52 23.762 15.719 15.121 35.16 33.84 72.48 33.84s56.762-18.719 72.48-33.84c14.398-13.801 24.719-23.762 47.52-23.762s33.121 9.9609 47.52 23.762c15.719 15.121 35.16 33.84 72.48 33.84s56.762-18.719 72.48-33.84c14.398-13.801 24.719-23.762 47.52-23.762s33.121 9.9609 47.52 23.762c15.719 15.121 35.281 33.84 72.48 33.84s56.762-18.719 72.48-33.84c14.398-13.801 24.719-23.762 47.52-23.762s33.121 9.9609 47.52 23.762c15.719 15.121 35.281 33.84 72.48 33.84s56.762-18.719 72.48-33.84c14.398-13.801 24.84-23.762 47.52-23.762 9.9609 0 18-8.0391 18-18 0-9.9609-8.0391-18-18-18z" fill="#017e9e"/>
 <path d="m1080 688.2c-37.199 0-56.762 18.719-72.48 33.84-14.398 13.801-24.84 23.762-47.52 23.762s-33.121-9.9609-47.52-23.762c-15.719-15.121-35.281-33.84-72.48-33.84s-56.762 18.719-72.48 33.84c-14.398 13.801-24.719 23.762-47.52 23.762s-33.121-9.9609-47.52-23.762c-15.719-15.121-35.281-33.84-72.48-33.84s-56.762 18.719-72.48 33.84c-14.398 13.801-24.719 23.762-47.52 23.762s-33.121-9.9609-47.52-23.762c-15.719-15.121-35.16-33.84-72.48-33.84s-56.762 18.719-72.48 33.84c-14.398 13.801-24.719 23.762-47.52 23.762s-33.121-9.9609-47.52-23.762c-15.719-15.121-35.16-33.84-72.48-33.84-9.9609 0-18 8.0391-18 18 0 9.9609 8.0391 18 18 18 22.801 0 33.121 9.9609 47.52 23.762 15.719 15.121 35.16 33.84 72.48 33.84s56.762-18.719 72.48-33.84c14.398-13.801 24.719-23.762 47.52-23.762s33.121 9.9609 47.52 23.762c15.719 15.121 35.16 33.84 72.48 33.84s56.762-18.719 72.48-33.84c14.398-13.801 24.719-23.762 47.52-23.762s33.121 9.9609 47.52 23.762c15.719 15.121 35.281 33.84 72.48 33.84s56.762-18.719 72.48-33.84c14.398-13.801 24.719-23.762 47.52-23.762s33.121 9.9609 47.52 23.762c15.719 15.121 35.281 33.84 72.48 33.84s56.762-18.719 72.48-33.84c14.398-13.801 24.84-23.762 47.52-23.762 9.9609 0 18-8.0391 18-18 0-9.9609-8.0391-18-18-18z" fill="#017e9e"/>
 <path d="m190.44 629.88h125.88c9.9609 0 18-8.0391 18-18v-218.88h52.441c6.8398 0 13.078-3.8398 16.078-9.9609 3-6.1211 2.3984-13.32-1.6797-18.84l-133.32-178.8c-6.7188-9.1211-22.078-9.1211-28.801 0l-133.32 178.8c-4.0781 5.3984-4.6797 12.719-1.6797 18.84 3 6.1211 9.2383 9.9609 16.078 9.9609h52.441v218.88c0 9.9609 8.0391 18 18 18z" fill="#017e9e"/>
 <path d="m537.12 629.88h125.88c9.9609 0 18-8.0391 18-18v-218.88h52.441c6.8398 0 13.078-3.8398 16.078-9.9609 3-6.1211 2.3984-13.32-1.6797-18.84l-133.32-178.8c-6.7188-9.1211-22.078-9.1211-28.801 0l-133.32 178.8c-4.0781 5.3984-4.6797 12.719-1.6797 18.84 3 6.1211 9.2383 9.9609 16.078 9.9609h52.441v218.88c0 9.9609 8.0391 18 18 18z" fill="#017e9e"/>
 <path d="m883.8 629.88h125.88c9.9609 0 18-8.0391 18-18v-218.88h52.441c6.8398 0 13.078-3.8398 16.078-9.9609 3-6.1211 2.3984-13.32-1.6797-18.84l-133.32-178.8c-6.7188-9.1211-22.078-9.1211-28.801 0l-133.32 178.8c-4.0781 5.3984-4.6797 12.719-1.6797 18.84 3 6.1211 9.2383 9.9609 16.078 9.9609h52.441v218.88c0 9.9609 8.0391 18 18 18z" fill="#017e9e"/>
</svg>
