<?xml version="1.0" encoding="UTF-8"?>
<svg width="1200pt" height="1200pt" version="1.1" viewBox="0 0 1200 1200" xmlns="http://www.w3.org/2000/svg">
 <path d="m714 129.6c-4.8008-8.3984-9.6016-14.398-18-24-6-7.1992-15.602-9.6016-25.199-8.3984-14.398 3.6016-22.801 16.801-20.398 31.199l2.3984 10.801c1.1992 3.6016 3.6016 9.6016 4.8008 15.602 1.1992 6 2.3984 10.801 3.6016 16.801 1.1992 10.801 1.1992 21.602-1.1992 32.398-2.3984 10.801-4.8008 20.398-10.801 31.199l-19.199 40.801c-6 14.398-12 30-16.801 48-3.6016 18-6 37.199-4.8008 55.199 2.3984 38.398 20.398 72 42 97.199 7.1992 8.3984 19.199 12 30 8.3984 14.398-4.8008 21.602-20.398 16.801-36v-1.1992c-9.6016-26.398-15.602-49.199-13.199-70.801 1.1992-21.602 8.3984-43.199 20.398-69.602 4.8008-13.199 12-26.398 16.801-40.801 6-15.602 12-36 12-55.199 1.1992-19.199-2.3984-38.398-8.3984-56.398-2.4062-8.4023-6.0039-16.801-10.805-25.199z" fill="#017e9e"/>
 <path d="m900 129.6c-4.8008-8.3984-9.6016-14.398-18-24-6-6-15.602-9.6016-25.199-7.2031-14.398 3.6016-22.801 16.801-20.398 31.199l2.3984 10.801c1.1992 3.6016 3.6016 9.6016 4.8008 15.602 1.1992 6 2.3984 10.801 3.6016 16.801 1.1992 10.801 1.1992 21.602-1.1992 32.398-2.3984 10.801-4.8008 20.398-10.801 31.199l-19.203 40.801c-6 14.398-12 30-16.801 48-3.6016 18-6 36-4.8008 55.199 2.3984 38.398 20.398 72 42 97.199 7.1992 8.3984 19.199 12 30 8.3984 14.398-4.8008 21.602-20.398 16.801-36v-1.1992c-9.6016-26.398-15.602-49.199-13.199-70.801 1.1992-21.602 8.3984-43.199 20.398-69.602 4.8008-13.199 12-26.398 16.801-40.801 6-15.602 12-36 12-55.199 1.1992-19.199-2.3984-38.398-8.3984-56.398-2.4023-9.5977-6-17.996-10.801-26.395z" fill="#017e9e"/>
 <path d="m1098 156c-3.6016-8.3984-7.1992-16.801-12-25.199-4.8008-8.3984-9.6016-14.398-18-24-6-7.1992-15.602-9.6016-25.199-8.3984-14.398 3.6016-22.801 16.801-20.398 31.199l2.3984 10.801c1.1992 3.6016 3.6016 9.6016 4.8008 15.602 1.1992 6 2.3984 10.801 3.6016 16.801 1.1992 10.801 1.1992 21.602-1.1992 32.398-2.3984 10.801-4.8008 20.398-10.801 31.199l-19.199 40.801c-6 14.398-12 30-16.801 48-3.6016 18-6 37.199-4.8008 55.199 2.3984 38.398 20.398 72 42 97.199 7.1992 8.3984 19.199 12 30 8.3984 14.398-4.8008 21.602-20.398 16.801-36v-1.1992c-9.6016-26.398-15.602-49.199-13.199-70.801 1.1992-21.602 8.3984-43.199 20.398-69.602 4.8008-13.199 12-26.398 16.801-40.801 6-15.602 12-36 12-55.199 1.1953-19.199-1.2031-39.598-7.2031-56.398z" fill="#017e9e"/>
 <path d="m495.6 740.4v-546c0-76.801-51.602-145.2-126-160.8-103.2-20.398-193.2 57.602-193.2 156v550.8c0 4.8008-2.3984 9.6016-6 12-69.602 66-97.199 169.2-57.602 267.6 27.602 68.398 87.602 122.4 159.6 140.4 160.8 40.801 304.8-79.199 304.8-232.8 0-67.199-27.602-130.8-75.602-175.2-4.8008-2.3984-6-7.1992-6-12zm-212.4 363.6c-46.801-13.199-87.602-46.801-109.2-90-44.398-87.602-14.398-182.4 54-231.6 4.8008-3.6016 7.1992-8.3984 7.1992-13.199v-573.6c0-52.801 38.398-102 91.199-106.8 60-6 111.6 42 111.6 100.8v578.4c0 6 2.3984 10.801 7.1992 13.199 45.602 33.602 74.398 88.801 74.398 146.4-1.1992 118.8-114 211.2-236.4 176.4z" fill="#017e9e"/>
 <path d="m378 812.4v-507.6c0-24-19.199-43.199-43.199-43.199s-43.199 19.199-43.199 43.199v507.6c-48 18-81.602 63.602-81.602 116.4 0 68.398 55.199 124.8 124.8 124.8 68.398 0 124.8-55.199 124.8-124.8 0-54-33.602-99.602-81.602-116.4z" fill="#017e9e"/>
</svg>
