<?xml version="1.0" encoding="UTF-8"?>
<svg width="1200pt" height="1200pt" version="1.1" viewBox="0 0 1200 1200" xmlns="http://www.w3.org/2000/svg">
 <path d="m924.17 835.05h-464.3c-86.113 0-159.14-41.711-200.3-114.5-17.902-31.512-28.848-68.113-31.535-105.72-2.8086-37.246 2.6641-75.434 15.84-110.26 27.625-72.961 84.648-125.52 161.64-149.62 18.098-42.312 46.754-74.809 83.566-94.559 42.145-22.68 93.07-27.719 149.57-14.664 24-18.07 50.113-31.801 77.879-40.871 46.32-15.312 95.977-16.824 142.75-4.3203 46.848 12.504 89.496 38.52 123.36 75.312 21.887 23.762 39.695 51.48 53.062 82.586 68.879 26.352 122.28 78.816 147.94 145.95 13.895 36.266 19.129 75.742 14.93 114.1-4.3672 39.793-18.695 77.809-41.52 109.89-48.672 68.781-131.45 106.68-232.87 106.68m-16.656 183.07c-38.16 0-59.953-31.895-56.23-59.113 2.7344-19.633 20.594-39.887 56.23-75.023 35.641 35.137 53.496 55.391 56.23 75.023 3.7227 27.215-18.094 59.113-56.23 59.113zm-205.01 0c-38.137 0-59.93-31.895-56.23-59.09 2.7344-19.633 20.566-39.887 56.23-75.023 35.664 35.137 53.52 55.391 56.184 75.023 3.7461 27.191-18.023 59.09-56.184 59.09zm-205.01 0c-38.16 0-59.93-31.895-56.184-59.09 2.6641-19.633 20.52-39.887 56.184-75.023 35.641 35.137 53.496 55.391 56.23 75.023 3.6992 27.191-18.094 59.09-56.23 59.09zm-205.03 0c-38.137 0-59.93-31.895-56.23-59.09 2.7344-19.633 20.594-39.887 56.23-75.023 35.664 35.137 53.52 55.391 56.23 75.023 3.7188 27.191-18.07 59.09-56.23 59.09zm102.5 155.59c-38.137 0-59.93-31.895-56.23-59.113 2.7344-19.633 20.566-39.887 56.23-75.023 35.664 35.137 53.496 55.391 56.23 75.023 3.7227 27.219-18.07 59.113-56.23 59.113zm205.03 0c-38.137 0-59.93-31.895-56.23-59.113 2.7109-19.633 20.566-39.887 56.23-75.023 35.664 35.137 53.496 55.391 56.23 75.023 3.7227 27.219-18.07 59.113-56.23 59.113zm205.03 0c-38.16 0-59.93-31.895-56.184-59.113 2.6875-19.633 20.52-39.887 56.184-75.023 35.664 35.137 53.496 55.391 56.23 75.023 3.6992 27.219-18.094 59.113-56.23 59.113zm-600.98-506.13c-73.633-8.207-135.27-48.336-171.79-112.97-17.832-31.512-28.801-68.09-31.559-105.57-2.7344-37.441 2.7617-75.625 15.863-110.38 27.672-72.961 84.695-125.52 161.69-149.62 18.023-42.336 46.656-74.832 83.52-94.586 42.145-22.68 93.098-27.719 149.57-14.641 24.023-18.047 50.137-31.801 77.902-40.871 46.465-15.312 96.168-16.754 142.75-4.2969 46.848 12.574 89.496 38.566 123.36 75.312 13.922 15.145 26.207 31.895 36.793 50.113-29.039 0.35938-58.008 5.1133-85.68 14.207-26.711 8.7852-51.91 21.289-75.098 37.078-53.641-9.8398-108.62-5.6172-157.54 20.664-40.754 21.887-71.449 55.969-91.777 96.863-78.266 28.465-138.46 85.32-168.34 164.28-14.855 39.266-20.902 82.152-17.855 124.03 1.2539 16.945 3.9883 33.816 8.1875 50.379z" fill="#017e9e"/>
</svg>
