<?xml version="1.0" encoding="UTF-8" standalone="no"?>
<svg
   width="37mm"
   height="37mm"
   viewBox="0 0 37 37"
   version="1.1"
   id="svg8"
   inkscape:version="1.1.1 (3bf5ae0d25, 2021-09-20)"
   sodipodi:docname="wind_carib.svg"
   xmlns:inkscape="http://www.inkscape.org/namespaces/inkscape"
   xmlns:sodipodi="http://sodipodi.sourceforge.net/DTD/sodipodi-0.dtd"
   xmlns="http://www.w3.org/2000/svg"
   xmlns:svg="http://www.w3.org/2000/svg"
   xmlns:rdf="http://www.w3.org/1999/02/22-rdf-syntax-ns#"
   xmlns:cc="http://creativecommons.org/ns#"
   xmlns:dc="http://purl.org/dc/elements/1.1/">
  <defs
     id="defs2">
    <marker
       style="overflow:visible"
       id="EmptyTriangleInM"
       refX="0.0"
       refY="0.0"
       orient="auto"
       inkscape:stockid="EmptyTriangleInM"
       inkscape:isstock="true">
      <path
         transform="scale(-0.4) translate(-4.5,0)"
         style="fill-rule:evenodd;fill:context-fill;stroke:context-stroke;stroke-width:1.0pt"
         d="M 5.77,0.0 L -2.88,5.0 L -2.88,-5.0 L 5.77,0.0 z "
         id="path73727" />
    </marker>
    <marker
       style="overflow:visible"
       id="Arrow2Sstart"
       refX="0.0"
       refY="0.0"
       orient="auto"
       inkscape:stockid="Arrow2Sstart"
       inkscape:isstock="true">
      <path
         transform="scale(0.3) translate(-2.3,0)"
         d="M 8.7185878,4.0337352 L -2.2072895,0.016013256 L 8.7185884,-4.0017078 C 6.9730900,-1.6296469 6.9831476,1.6157441 8.7185878,4.0337352 z "
         style="stroke:context-stroke;fill-rule:evenodd;fill:context-stroke;stroke-width:0.62500000;stroke-linejoin:round"
         id="path73603" />
    </marker>
    <marker
       style="overflow:visible"
       id="TriangleInL"
       refX="0.0"
       refY="0.0"
       orient="auto"
       inkscape:stockid="TriangleInL"
       inkscape:isstock="true">
      <path
         transform="scale(-0.8)"
         style="fill-rule:evenodd;fill:context-stroke;stroke:context-stroke;stroke-width:1.0pt"
         d="M 5.77,0.0 L -2.88,5.0 L -2.88,-5.0 L 5.77,0.0 z "
         id="path73706" />
    </marker>
    <marker
       style="overflow:visible"
       id="Arrow1Sstart"
       refX="0.0"
       refY="0.0"
       orient="auto"
       inkscape:stockid="Arrow1Sstart"
       inkscape:isstock="true">
      <path
         transform="scale(0.2) translate(6,0)"
         style="fill-rule:evenodd;fill:context-stroke;stroke:context-stroke;stroke-width:1.0pt"
         d="M 0.0,0.0 L 5.0,-5.0 L -12.5,0.0 L 5.0,5.0 L 0.0,0.0 z "
         id="path73585" />
    </marker>
    <clipPath
       clipPathUnits="userSpaceOnUse"
       id="clipPath2908">
      <circle
         style="fill:none;fill-opacity:1;stroke:#8ce3ff;stroke-width:2;stroke-linecap:round;stroke-linejoin:round;stroke-miterlimit:4;stroke-dasharray:none;stroke-opacity:1;paint-order:stroke fill markers"
         id="circle2910"
         cx="106.08598"
         cy="75.381973"
         r="18.090326" />
    </clipPath>
    <clipPath
       clipPathUnits="userSpaceOnUse"
       id="clipPath2904">
      <circle
         style="fill:none;fill-opacity:1;stroke:#fbbd00;stroke-width:2;stroke-linecap:round;stroke-linejoin:round;stroke-miterlimit:4;stroke-dasharray:none;stroke-opacity:1;paint-order:stroke fill markers"
         id="circle2906"
         cx="43.431816"
         cy="74.57692"
         r="18.090326" />
    </clipPath>
    <clipPath
       clipPathUnits="userSpaceOnUse"
       id="clipPath3450">
      <ellipse
         style="fill:none;fill-opacity:1;stroke:#fbbd00;stroke-width:2.0065;stroke-linecap:round;stroke-linejoin:round;stroke-miterlimit:4;stroke-dasharray:none;stroke-opacity:1;paint-order:stroke fill markers"
         id="circle3452"
         cx="47.477753"
         cy="256.70303"
         rx="17.689724"
         ry="18.620449" />
    </clipPath>
    <marker
       style="overflow:visible"
       id="TriangleInM-0"
       refX="0"
       refY="0"
       orient="auto"
       inkscape:stockid="TriangleInM"
       inkscape:isstock="true">
      <path
         transform="scale(-0.4)"
         style="fill:#f44000;fill-opacity:1;fill-rule:evenodd;stroke:#f44000;stroke-width:1pt;stroke-opacity:1"
         d="M 5.77,0 -2.88,5 V -5 Z"
         id="path1735-5" />
    </marker>
  </defs>
  <sodipodi:namedview
     id="base"
     pagecolor="#ffffff"
     bordercolor="#666666"
     borderopacity="0"
     inkscape:pageopacity="0.0"
     inkscape:pageshadow="2"
     inkscape:zoom="2.5722563"
     inkscape:cx="155.31112"
     inkscape:cy="85.916788"
     inkscape:document-units="mm"
     inkscape:current-layer="g3090"
     inkscape:document-rotation="0"
     showgrid="false"
     fit-margin-top="0"
     fit-margin-left="0"
     fit-margin-right="0"
     fit-margin-bottom="0"
     inkscape:window-width="2048"
     inkscape:window-height="1082"
     inkscape:window-x="1798"
     inkscape:window-y="-6"
     inkscape:window-maximized="1"
     inkscape:pagecheckerboard="0" />
  <metadata
     id="metadata5">
    <rdf:RDF>
      <cc:Work
         rdf:about="">
        <dc:format>image/svg+xml</dc:format>
        <dc:type
           rdf:resource="http://purl.org/dc/dcmitype/StillImage" />
      </cc:Work>
    </rdf:RDF>
  </metadata>
  <g
     inkscape:label="Laag 1"
     inkscape:groupmode="layer"
     id="layer1"
     transform="translate(-58.51851,-102.3466)">
    <g
       id="g3516"
       transform="matrix(0.99927511,0,0,0.99766062,-11.467487,-69.479217)"
       inkscape:export-filename="C:\Users\Stich\Documents\Romee\Illustrator\KEA kaartverhalen\Output\KEA iconen 20210322 update\D. Hitte.png"
       inkscape:export-xdpi="500"
       inkscape:export-ydpi="500">
      <circle
         style="display:inline;fill:#7a7a7a;fill-opacity:0;stroke:none;stroke-width:2.04529;stroke-linecap:round;stroke-linejoin:round;stroke-miterlimit:4;stroke-dasharray:none;stroke-opacity:1;paint-order:stroke fill markers"
         id="path1443-1-6"
         cx="88.536766"
         cy="190.72873"
         r="18.5" />
      <g
         id="g3263"
         transform="matrix(1.0458049,0,0,1.0067202,38.91114,-67.858222)"
         clip-path="url(#clipPath3450)">
        <circle
           style="display:inline;fill:#7a7a7a;fill-opacity:0;stroke:none;stroke-width:2;stroke-linecap:round;stroke-linejoin:round;stroke-miterlimit:4;stroke-dasharray:none;stroke-opacity:1;paint-order:stroke fill markers"
           id="path1443-1-6-0"
           cx="48.160671"
           cy="256.6608"
           r="18.090326" />
        <rect
           style="display:inline;fill:#e5cdc0;fill-opacity:1;stroke:#e5cdc0;stroke-width:0.525715;stroke-linecap:butt;stroke-linejoin:miter;stroke-miterlimit:4;stroke-dasharray:none;stroke-opacity:1;paint-order:markers fill stroke"
           id="rect3311-2-0-1-0-1-8-3"
           width="54.366943"
           height="20.049709"
           x="18.645409"
           y="265.06854"
           ry="0" />
        <g
           id="g3090"
           transform="matrix(0.99513068,0,0,1,6.2130824,128.92832)"
           style="display:inline">
          <path
             d="m 42.84032,130.92409 c -0.01413,0 -0.02725,0.005 -0.04107,0.007 -0.01378,0.002 -0.0271,-0.007 -0.04124,-0.007 h -5.570988 c -0.275501,0 -0.498819,0.23122 -0.498819,0.51647 0,0.28525 0.223318,0.5165 0.498819,0.5165 h 5.570976 c 0.01413,0 0.02723,-0.005 0.04107,-0.007 0.01376,-0.002 0.02689,0.007 0.04123,0.007 0.275502,1.8e-4 0.498687,0.23154 0.49852,0.51679 -1.67e-4,0.28524 -0.223622,0.51638 -0.499116,0.51618 -0.18139,-7e-5 -0.34841,-0.10213 -0.4362,-0.26648 -0.129644,-0.2517 -0.431798,-0.34691 -0.674865,-0.2127 -0.243094,0.13426 -0.335043,0.44716 -0.205396,0.6988 0.0026,0.008 0.0054,0.011 0.0085,0.0156 0.40075,0.74838 1.31156,1.01874 2.034382,0.60381 0.722802,-0.41496 0.983887,-1.35805 0.583149,-2.10648 -0.263723,-0.49251 -0.764753,-0.79809 -1.308634,-0.79812 z"
             id="path60203"
             style="fill:#4a7f85;fill-opacity:1;stroke-width:0.258886" />
          <path
             d="m 36.35569,127.82509 h 4.655632 c 1.010127,-1.6e-4 1.828905,-0.84813 1.828768,-1.89406 -1.31e-4,-1.04593 -0.819097,-1.89373 -1.82923,-1.89358 -0.919094,1.5e-4 -1.695339,0.70648 -1.813575,1.6502 -0.03518,0.28294 0.157861,0.54188 0.431147,0.57834 0.273287,0.0361 0.523338,-0.16349 0.558515,-0.44647 0.05962,-0.47135 0.476964,-0.80351 0.932236,-0.74181 0.455272,0.0613 0.776011,0.49389 0.716421,0.9653 -0.05419,0.42855 -0.406869,0.74912 -0.824282,0.74914 H 36.35569 c -0.275501,0 -0.498823,0.23119 -0.498823,0.51648 0,0.28529 0.223322,0.51646 0.498823,0.51646 z"
             id="path60205"
             style="fill:#4a7f85;fill-opacity:1;stroke-width:0.258886" />
          <path
             d="m 45.999504,124.72611 c -1.378552,0.002 -2.495186,1.1592 -2.494093,2.58659 1.66e-4,0.21583 0.02641,0.43064 0.07818,0.63965 0.06849,0.27632 0.340386,0.44277 0.607235,0.37188 0.266851,-0.071 0.427655,-0.35248 0.359143,-0.62875 -0.206337,-0.82872 0.275158,-1.67368 1.07546,-1.88729 0.800284,-0.21369 1.616338,0.28488 1.82268,1.11354 0.206346,0.82871 -0.275162,1.6736 -1.075451,1.88733 -0.121877,0.0324 -0.24725,0.0485 -0.373123,0.0486 h -10.97402 c -0.275494,0 -0.498821,0.23126 -0.498821,0.5165 0,0.28525 0.223327,0.51653 0.498821,0.51653 h 10.973996 c 1.377458,0 2.494091,-1.1562 2.494091,-2.58249 0,-1.42632 -1.116633,-2.58253 -2.494091,-2.58253 z"
             id="path60207"
             style="fill:#4a7f85;fill-opacity:1;stroke-width:0.258886" />
        </g>
        <ellipse
           style="opacity:1;fill:#c08c00;fill-opacity:0;stroke:#e5cdc0;stroke-width:0.857975;stroke-opacity:1"
           id="path2038"
           cx="47.46492"
           cy="256.90387"
           rx="17.273569"
           ry="17.99061" />
      </g>
    </g>
  </g>
</svg>
