<?xml version="1.0" encoding="UTF-8" standalone="no"?>
<!-- Generator: Adobe Illustrator 27.8.0, SVG Export Plug-In . SVG Version: 6.00 Build 0)  -->

<svg
   version="1.1"
   id="svg8"
   x="0px"
   y="0px"
   viewBox="0 0 298 249.5"
   style="enable-background:new 0 0 298 249.5;"
   xml:space="preserve"
   sodipodi:docname="zst.svg"
   inkscape:version="1.1.1 (3bf5ae0d25, 2021-09-20)"
   xmlns:inkscape="http://www.inkscape.org/namespaces/inkscape"
   xmlns:sodipodi="http://sodipodi.sourceforge.net/DTD/sodipodi-0.dtd"
   xmlns:xlink="http://www.w3.org/1999/xlink"
   xmlns="http://www.w3.org/2000/svg"
   xmlns:svg="http://www.w3.org/2000/svg"><defs
   id="defs1000" /><sodipodi:namedview
   id="namedview998"
   pagecolor="#ffffff"
   bordercolor="#666666"
   borderopacity="1.0"
   inkscape:pageshadow="2"
   inkscape:pageopacity="0.0"
   inkscape:pagecheckerboard="0"
   showgrid="false"
   inkscape:zoom="1.6934021"
   inkscape:cx="363.4695"
   inkscape:cy="169.48131"
   inkscape:window-width="2048"
   inkscape:window-height="1082"
   inkscape:window-x="1798"
   inkscape:window-y="-6"
   inkscape:window-maximized="1"
   inkscape:current-layer="g984" />
<style
   type="text/css"
   id="style969">
	.st0{fill:none;}
	.st1{clip-path:url(#SVGID_00000115516940722089710040000013912755137494729891_);}
	.st2{fill:#F5EE8B;}
	.st3{fill:#8CE3FF;stroke:#8CE3FF;stroke-width:0.53;stroke-linecap:round;stroke-linejoin:round;}
	.st4{fill:none;stroke:#00C2FF;stroke-width:0.97;stroke-linecap:round;stroke-dasharray:0,0,2.91,2.91;}
	.st5{fill-rule:evenodd;clip-rule:evenodd;fill:#F9CBB3;}
	.st6{fill-rule:evenodd;clip-rule:evenodd;fill:#FCE6DD;}
</style>
<g
   id="layer1">
	<g
   id="g925">
		<g
   id="g971">
			<ellipse
   id="path870-2-2"
   class="st0"
   cx="127.9"
   cy="124.3"
   rx="99.800003"
   ry="99.599998" />
			<g
   id="g986">
				<g
   id="g984">
					<defs
   id="defs973">
						<ellipse
   id="SVGID_1_"
   cx="127.4"
   cy="125.2"
   rx="99.800003"
   ry="99.599998" />
					</defs>
					<clipPath
   id="SVGID_00000062908614833684197660000000093025074716158142_">
						<use
   xlink:href="#SVGID_1_"
   style="overflow:visible"
   id="use975"
   x="0"
   y="0"
   width="100%"
   height="100%" />
					</clipPath>
					<g
   clip-path="url(#SVGID_00000062908614833684197660000000093025074716158142_)"
   id="g982">
						<g
   id="g940">
							<path
   id="rect919-4-2"
   class="st2"
   d="m 119.1,124.8 114.4,-0.4 -3.1,34.5 -141.3,2 z M 0,158.8 h 298 v 84.8 H 0 Z"
   style="fill:#e5cdc0;fill-opacity:1" />
							<path
   id="rect944-5-0"
   class="st3"
   d="m 12.3,121.8 c 94.5,15.6 180.1,-18.9 112.6,25.4 l -7.4,5.5 -39.4,35.3 c -2.1,2.7 -20.8,10.1 -24,9.1 l -22.6,0.6 z"
   style="fill:#96c4c4;fill-opacity:1;stroke:#96c4c4;stroke-opacity:1" />
							<path
   id="path3369"
   class="st4"
   d="m 26.1,144.3 101.5,0.6"
   style="fill:#4a7f85;fill-opacity:1;stroke:#4a7f85;stroke-opacity:1" />
						</g>
					</g>
				</g>
			</g>
		</g>
	</g>
</g>
<path
   class="st5"
   d="M79.9,186.4c0.1,0.5,0.7-0.3,1.2-0.4c0.4,0,0.4-0.4,0.5-0.9c0-0.1,0-0.1,0-0.2c-0.1-1.7-0.1-3.3,1-5  c0.2,0.1,0.4,0.1,0.6,0.2c0.2,0.7,0.5,1.4,1,1.9c0.2,0.2,0.4,0.1,0.6-0.1c0.1-0.2,0.1-0.5-0.1-0.7s-0.4-0.6-0.6-0.9c0.3,0,0.7,0,1,0  c0.2,0,0.4-0.3,0.3-0.6s-0.2-0.5-0.5-0.5c-0.7,0.1-1.4,0-2.1-0.1c1.3-1.5,2.4-1.7,4.3-1.8c0.2,0,0.4-0.2,0.4-0.5s-0.2-0.5-0.4-0.5  h-0.3c-1,0.1-1.8,0.1-2.6,0.4c0-0.2,0-0.4,0-0.6c0-0.7,0.3-1.2,0.8-1.4c0.1,0,0.1-0.1,0.2-0.1c0.7,0.3,1.5,0.5,2.3,0.4  c0.4,0,0.8-0.2,1.2-0.4c0.2-0.1,0.2-0.5,0.1-0.7s-0.4-0.3-0.6-0.2c-0.3,0.3-1.1,0.3-1.7,0.3c0.4-0.2,0.7-0.5,1-0.9  c0.2-0.2,0.2-0.5,0-0.7s-0.4-0.2-0.6-0.1c-0.6,0.6-1.4,1.1-2.2,1.4c-0.8,0.3-1.4,1.2-1.4,2.4c0,0.4,0,0.7,0.1,1  c-0.3,0.2-0.6,0.4-0.8,0.6c-0.1-0.1-0.2-0.3-0.3-0.4c-0.7-1-1.6-2.2-1.2-3.9c0.3-1.2,1.2-2.4,2.3-2.9c0.1,0,0.4,0,0.7-0.1  c0.7-0.1,1.8-0.3,2.4-0.7c0.2-0.1,0.3-0.4,0.2-0.7c-0.1-0.2-0.4-0.4-0.6-0.2c-0.5,0.3-1.6,0.5-2.3,0.6c0.1-0.6,0.2-1.3,0.4-1.9  c0.1-0.3-0.1-0.6-0.3-0.7c-0.2-0.1-0.4,0-0.5,0.3l0,0c-0.2,0.8-0.3,1.6-0.5,2.4c-0.4,0.2-0.8,0.5-1.2,0.9c-0.2-0.3-0.3-0.6-0.4-1  c-0.1-0.3,0-0.8,0.1-1.3c0.1-0.3,0.1-0.6,0.1-0.9c0.1-0.7-0.2-1.3-0.5-2.3c-0.1-0.2-0.2-0.5-0.3-0.8c-0.1-0.3-0.3-0.4-0.5-0.3  c-0.2,0.1-0.3,0.4-0.2,0.7c0.1,0.3,0.2,0.5,0.3,0.8c0.2,0.4,0.3,0.8,0.4,1c-0.4-0.1-0.9-0.2-1.3-0.5c-0.2-0.1-0.4,0-0.5,0.2  s0,0.6,0.2,0.7c0.5,0.3,1.1,0.5,1.7,0.6c0,0.2-0.1,0.3-0.1,0.5c-0.1,0.6-0.2,1.2-0.1,1.7s0.3,1.1,0.6,1.5c-0.4,0.5-0.7,1.2-0.8,1.9  c-0.2,0.6-0.2,1.3,0,2c-0.9-0.5-1.7-1.1-2.5-1.8c0.1-0.9,0.1-1.8,0.1-2.7l0,0c0.4-0.3,0.7-0.6,1-1c0.1-0.2,0.1-0.5-0.1-0.7  s-0.4-0.2-0.6,0s-0.3,0.4-0.5,0.6c0-0.2-0.1-0.5-0.1-0.7c-0.1-0.3-0.3-0.5-0.5-0.4s-0.3,0.3-0.3,0.6c0.2,1.2,0.3,2.4,0.2,3.6  c-0.9-0.9-1.8-2-2.5-3.2c-0.1-0.2-0.4-0.3-0.6-0.1c-0.2,0.1-0.2,0.5-0.1,0.7l0,0c0.2,0.4,0.5,0.8,0.7,1.1c-0.3-0.1-0.6-0.2-0.8-0.3  c-0.2-0.1-0.4-0.1-0.6,0.2c-0.1,0.2,0,0.6,0.2,0.7l0,0c0.7,0.4,1.7,0.6,2.1,0.6c1.5,1.8,3.3,3.2,4.9,3.9c0.3,0.9,0.7,1.8,1.2,2.6  c-0.1,0.1-0.1,0.1-0.2,0.2c-0.4,0.5-0.8,1.1-1.1,1.8c-0.8,0-2-0.6-3-1.1v-0.1c0.1-0.4,0.1-0.8,0.1-1.2c0.6-0.3,1.2-0.7,1.6-1.3  c0.2-0.2,0.1-0.5,0-0.7c-0.2-0.2-0.4-0.2-0.6,0l0,0c-0.3,0.4-0.7,0.7-1.1,0.9c-0.1-0.5-0.2-0.9-0.3-1.4c-0.1-0.3-0.3-0.4-0.5-0.3  c-0.2,0.1-0.3,0.4-0.2,0.7c0.3,0.9,0.4,1.9,0.4,2.9c-0.2-0.1-0.4-0.2-0.6-0.4l0,0c-0.8-0.7-1.3-1.7-1.9-2.7s-1.1-2.1-2.1-2.9  c-0.2-0.1-0.4-0.1-0.6,0.1c-0.1,0.2-0.1,0.6,0.2,0.7c0.5,0.4,0.9,0.9,1.2,1.5c-0.6,0.1-1.3-0.1-1.9-0.3c-0.2-0.1-0.4,0-0.5,0.3  s0,0.6,0.2,0.7c0.3,0.1,0.6,0.3,1,0.3c-0.1,0.1-0.3,0.3-0.5,0.4c-0.2,0.1-0.3,0.4-0.2,0.6c0.1,0.2,0.2,0.4,0.4,0.4h0.1  c0.6-0.2,1.1-0.9,1.3-1.2c0.1,0,0.1,0,0.2,0c0.2,0,0.3-0.1,0.4-0.1c0,0,0,0.1,0.1,0.1c0.3,0.5,0.6,1,0.9,1.5  c-0.3,0.3-0.7,0.5-1.1,0.4c-0.2,0-0.4,0.2-0.4,0.5s0.2,0.5,0.4,0.6c0.1,0,0.3,0,0.4,0c0.5-0.1,0.9-0.3,1.3-0.7  c0.2,0.2,0.4,0.5,0.7,0.6c0,0,0.1,0,0.1,0.1c0.7,0.6,2.8,2,4.3,2.5c-0.2,0.9-0.3,1.9-0.2,2.9L79.9,186.4L79.9,186.4z"
   id="path991" />
<path
   class="st6"
   d="M87.7,178.6c0.1,0.5-0.1,1.2,0.4,1.2c0.4,0,1.3-0.7,1.4-1.2c0-0.1,0-0.1,0-0.2c-0.1-1.7-0.1-3.3,1-5  c0.2,0.1,0.4,0.1,0.6,0.2c0.2,0.7,0.5,1.4,1,1.9c0.2,0.2,0.4,0.1,0.6-0.1c0.1-0.2,0.1-0.5-0.1-0.7s-0.4-0.6-0.6-0.9c0.3,0,0.7,0,1,0  c0.2,0,0.4-0.3,0.3-0.6s-0.2-0.5-0.5-0.5c-0.7,0.1-1.4,0-2.1-0.1c1.3-1.5,2.4-1.7,4.3-1.8c0.2,0,0.4-0.2,0.4-0.5s-0.2-0.5-0.4-0.5  h-0.3c-1,0.1-1.8,0.1-2.6,0.4c0-0.2,0-0.4,0-0.6c0-0.7,0.3-1.2,0.8-1.4c0.1,0,0.1-0.1,0.2-0.1c0.7,0.3,1.5,0.5,2.3,0.4  c0.4,0,0.8-0.2,1.2-0.4c0.2-0.1,0.2-0.5,0.1-0.7s-0.4-0.3-0.6-0.2c-0.3,0.3-1.1,0.3-1.7,0.3c0.4-0.2,0.7-0.5,1-0.9  c0.2-0.2,0.2-0.5,0-0.7s-0.4-0.2-0.6-0.1c-0.6,0.6-1.4,1.1-2.2,1.4c-0.8,0.3-1.4,1.2-1.4,2.4c0,0.4,0,0.7,0.1,1  c-0.3,0.2-0.6,0.4-0.8,0.6c-0.1-0.1-0.2-0.3-0.3-0.4c-0.7-1-1.6-2.2-1.2-3.9c0.3-1.2,1.2-2.4,2.3-2.9c0.1,0,0.4,0,0.7-0.1  c0.7-0.1,1.8-0.3,2.4-0.7c0.2-0.1,0.3-0.4,0.2-0.7c-0.1-0.2-0.4-0.4-0.6-0.2c-0.5,0.3-1.6,0.5-2.3,0.6c0.1-0.6,0.2-1.3,0.4-1.9  c0.1-0.3-0.1-0.6-0.3-0.7c-0.2-0.1-0.4,0-0.5,0.3l0,0c-0.2,0.8-0.3,1.6-0.5,2.4c-0.4,0.2-0.8,0.5-1.2,0.9c-0.2-0.3-0.3-0.6-0.4-1  c-0.1-0.3,0-0.8,0.1-1.3c0.1-0.3,0.1-0.6,0.1-0.9c0.1-0.7-0.2-1.3-0.5-2.3c-0.1-0.2-0.2-0.5-0.3-0.8c-0.1-0.3-0.3-0.4-0.5-0.3  c-0.2,0.1-0.3,0.4-0.2,0.7c0.1,0.3,0.2,0.5,0.3,0.8c0.2,0.4,0.3,0.8,0.4,1c-0.4-0.1-0.9-0.2-1.3-0.5c-0.2-0.1-0.4,0-0.5,0.2  s0,0.6,0.2,0.7c0.5,0.3,1.1,0.5,1.7,0.6c0,0.2-0.1,0.3-0.1,0.5c-0.1,0.6-0.2,1.2-0.1,1.7s0.3,1.1,0.6,1.5c-0.4,0.5-0.7,1.2-0.8,1.9  c-0.2,0.6-0.2,1.3,0,2c-0.9-0.5-1.7-1.1-2.5-1.8c0.1-0.9,0.1-1.8,0.1-2.7l0,0c0.4-0.3,0.7-0.6,1-1c0.1-0.2,0.1-0.5-0.1-0.7  s-0.4-0.2-0.6,0s-0.3,0.4-0.5,0.6c0-0.2-0.1-0.5-0.1-0.7c-0.1-0.3-0.3-0.5-0.5-0.4s-0.3,0.3-0.3,0.6c0.2,1.2,0.3,2.4,0.2,3.6  c-0.9-0.9-1.8-2-2.5-3.2c-0.1-0.2-0.4-0.3-0.6-0.1c-0.2,0.1-0.2,0.5-0.1,0.7l0,0c0.2,0.4,0.5,0.8,0.7,1.1c-0.3-0.1-0.6-0.2-0.8-0.3  c-0.2-0.1-0.4-0.1-0.6,0.2c-0.1,0.2,0,0.6,0.2,0.7l0,0c0.7,0.4,1.7,0.6,2.1,0.6c1.5,1.8,3.3,3.2,4.9,3.9c0.3,0.9,0.7,1.8,1.2,2.6  c-0.1,0.1-0.1,0.1-0.2,0.2c-0.4,0.5-0.8,1.1-1.1,1.8c-0.8,0-2-0.6-3-1.1v-0.1c0.1-0.4,0.1-0.8,0.1-1.2c0.6-0.3,1.2-0.7,1.6-1.3  c0.2-0.2,0.1-0.5,0-0.7c-0.2-0.2-0.4-0.2-0.6,0l0,0c-0.3,0.4-0.7,0.7-1.1,0.9c-0.1-0.5-0.2-0.9-0.3-1.4c-0.1-0.3-0.3-0.4-0.5-0.3  c-0.2,0.1-0.3,0.4-0.2,0.7c0.3,0.9,0.4,1.9,0.4,2.9c-0.2-0.1-0.4-0.2-0.6-0.4l0,0c-0.8-0.7-1.3-1.7-1.9-2.7s-1.1-2.1-2.1-2.9  c-0.2-0.1-0.4-0.1-0.6,0.1c-0.1,0.2-0.1,0.6,0.2,0.7c0.5,0.4,0.9,0.9,1.2,1.5c-0.6,0.1-1.3-0.1-1.9-0.3c-0.2-0.1-0.4,0-0.5,0.3  s0,0.6,0.2,0.7c0.3,0.1,0.6,0.3,1,0.3c-0.1,0.1-0.3,0.3-0.5,0.4c-0.2,0.1-0.3,0.4-0.2,0.6c0.1,0.2,0.2,0.4,0.4,0.4h0.1  c0.6-0.2,1.1-0.9,1.3-1.2c0.1,0,0.1,0,0.2,0c0.2,0,0.3-0.1,0.4-0.1c0,0,0,0.1,0.1,0.1c0.3,0.5,0.6,1,0.9,1.5  c-0.3,0.3-0.7,0.5-1.1,0.4c-0.2,0-0.4,0.2-0.4,0.5s0.2,0.5,0.4,0.6c0.1,0,0.3,0,0.4,0c0.5-0.1,0.9-0.3,1.3-0.7  c0.2,0.2,0.4,0.5,0.7,0.6c0,0,0.1,0,0.1,0.1c0.7,0.6,2.8,2,4.3,2.5c-0.2,0.9-0.3,1.9-0.2,2.9L87.7,178.6L87.7,178.6z"
   id="path993" />
<ellipse
   class="st0"
   cx="127.7"
   cy="124.8"
   rx="125"
   ry="124.8"
   id="ellipse995"
   style="display:inline" />
<ellipse
   style="fill:#c08c00;fill-opacity:0;stroke:#e5cdc0;stroke-width:3.32221;stroke-opacity:1"
   id="path2038"
   cx="127.5001"
   cy="126.7"
   rx="98.338997"
   ry="98.338898" /></svg>
